<mxfile host="app.diagrams.net" agent="Mozilla/5.0 (Macintosh; Intel Mac OS X 10_15_7) AppleWebKit/537.36 (KHTML, like Gecko) Chrome/132.0.0.0 Safari/537.36" version="26.0.10">
  <diagram name="第 1 页" id="4b0BHh1YzD-mGVPlwAt6">
    <mxGraphModel dx="1451" dy="954" grid="1" gridSize="10" guides="1" tooltips="1" connect="1" arrows="1" fold="1" page="1" pageScale="1" pageWidth="3300" pageHeight="4681" math="0" shadow="0">
      <root>
        <mxCell id="0" />
        <mxCell id="1" parent="0" />
        <mxCell id="ThfCISDLxi8xhfDp9Rs2-1" value="Sonicraft" style="rounded=1;whiteSpace=wrap;html=1;" vertex="1" parent="1">
          <mxGeometry x="1590" y="2311" width="120" height="60" as="geometry" />
        </mxCell>
        <mxCell id="ThfCISDLxi8xhfDp9Rs2-17" value="" style="edgeStyle=orthogonalEdgeStyle;rounded=0;orthogonalLoop=1;jettySize=auto;html=1;" edge="1" parent="1" source="ThfCISDLxi8xhfDp9Rs2-2" target="ThfCISDLxi8xhfDp9Rs2-16">
          <mxGeometry relative="1" as="geometry" />
        </mxCell>
        <mxCell id="ThfCISDLxi8xhfDp9Rs2-2" value="START" style="rounded=1;whiteSpace=wrap;html=1;" vertex="1" parent="1">
          <mxGeometry x="1590" y="1690" width="120" height="60" as="geometry" />
        </mxCell>
        <mxCell id="ThfCISDLxi8xhfDp9Rs2-3" value="varable" style="shape=table;startSize=30;container=1;collapsible=0;childLayout=tableLayout;strokeColor=default;fontSize=16;" vertex="1" parent="1">
          <mxGeometry x="2020" y="1645" width="180" height="150" as="geometry" />
        </mxCell>
        <mxCell id="ThfCISDLxi8xhfDp9Rs2-4" value="" style="shape=tableRow;horizontal=0;startSize=0;swimlaneHead=0;swimlaneBody=0;strokeColor=inherit;top=0;left=0;bottom=0;right=0;collapsible=0;dropTarget=0;fillColor=none;points=[[0,0.5],[1,0.5]];portConstraint=eastwest;fontSize=16;" vertex="1" parent="ThfCISDLxi8xhfDp9Rs2-3">
          <mxGeometry y="30" width="180" height="40" as="geometry" />
        </mxCell>
        <mxCell id="ThfCISDLxi8xhfDp9Rs2-5" value="name&lt;span style=&quot;white-space: pre;&quot;&gt;&#x9;&lt;/span&gt;init&lt;span style=&quot;white-space: pre;&quot;&gt;&#x9;&lt;/span&gt;&lt;span style=&quot;white-space: pre;&quot;&gt;&#x9;&lt;/span&gt;" style="shape=partialRectangle;html=1;whiteSpace=wrap;connectable=0;strokeColor=inherit;overflow=hidden;fillColor=none;top=0;left=0;bottom=0;right=0;pointerEvents=1;fontSize=16;" vertex="1" parent="ThfCISDLxi8xhfDp9Rs2-4">
          <mxGeometry width="60" height="40" as="geometry">
            <mxRectangle width="60" height="40" as="alternateBounds" />
          </mxGeometry>
        </mxCell>
        <mxCell id="ThfCISDLxi8xhfDp9Rs2-6" value="init" style="shape=partialRectangle;html=1;whiteSpace=wrap;connectable=0;strokeColor=inherit;overflow=hidden;fillColor=none;top=0;left=0;bottom=0;right=0;pointerEvents=1;fontSize=16;" vertex="1" parent="ThfCISDLxi8xhfDp9Rs2-4">
          <mxGeometry x="60" width="60" height="40" as="geometry">
            <mxRectangle width="60" height="40" as="alternateBounds" />
          </mxGeometry>
        </mxCell>
        <mxCell id="ThfCISDLxi8xhfDp9Rs2-7" value="" style="shape=partialRectangle;html=1;whiteSpace=wrap;connectable=0;strokeColor=inherit;overflow=hidden;fillColor=none;top=0;left=0;bottom=0;right=0;pointerEvents=1;fontSize=16;" vertex="1" parent="ThfCISDLxi8xhfDp9Rs2-4">
          <mxGeometry x="120" width="60" height="40" as="geometry">
            <mxRectangle width="60" height="40" as="alternateBounds" />
          </mxGeometry>
        </mxCell>
        <mxCell id="ThfCISDLxi8xhfDp9Rs2-8" value="" style="shape=tableRow;horizontal=0;startSize=0;swimlaneHead=0;swimlaneBody=0;strokeColor=inherit;top=0;left=0;bottom=0;right=0;collapsible=0;dropTarget=0;fillColor=none;points=[[0,0.5],[1,0.5]];portConstraint=eastwest;fontSize=16;" vertex="1" parent="ThfCISDLxi8xhfDp9Rs2-3">
          <mxGeometry y="70" width="180" height="40" as="geometry" />
        </mxCell>
        <mxCell id="ThfCISDLxi8xhfDp9Rs2-9" value="" style="shape=partialRectangle;html=1;whiteSpace=wrap;connectable=0;strokeColor=inherit;overflow=hidden;fillColor=none;top=0;left=0;bottom=0;right=0;pointerEvents=1;fontSize=16;" vertex="1" parent="ThfCISDLxi8xhfDp9Rs2-8">
          <mxGeometry width="60" height="40" as="geometry">
            <mxRectangle width="60" height="40" as="alternateBounds" />
          </mxGeometry>
        </mxCell>
        <mxCell id="ThfCISDLxi8xhfDp9Rs2-10" value="" style="shape=partialRectangle;html=1;whiteSpace=wrap;connectable=0;strokeColor=inherit;overflow=hidden;fillColor=none;top=0;left=0;bottom=0;right=0;pointerEvents=1;fontSize=16;" vertex="1" parent="ThfCISDLxi8xhfDp9Rs2-8">
          <mxGeometry x="60" width="60" height="40" as="geometry">
            <mxRectangle width="60" height="40" as="alternateBounds" />
          </mxGeometry>
        </mxCell>
        <mxCell id="ThfCISDLxi8xhfDp9Rs2-11" value="" style="shape=partialRectangle;html=1;whiteSpace=wrap;connectable=0;strokeColor=inherit;overflow=hidden;fillColor=none;top=0;left=0;bottom=0;right=0;pointerEvents=1;fontSize=16;" vertex="1" parent="ThfCISDLxi8xhfDp9Rs2-8">
          <mxGeometry x="120" width="60" height="40" as="geometry">
            <mxRectangle width="60" height="40" as="alternateBounds" />
          </mxGeometry>
        </mxCell>
        <mxCell id="ThfCISDLxi8xhfDp9Rs2-12" value="" style="shape=tableRow;horizontal=0;startSize=0;swimlaneHead=0;swimlaneBody=0;strokeColor=inherit;top=0;left=0;bottom=0;right=0;collapsible=0;dropTarget=0;fillColor=none;points=[[0,0.5],[1,0.5]];portConstraint=eastwest;fontSize=16;" vertex="1" parent="ThfCISDLxi8xhfDp9Rs2-3">
          <mxGeometry y="110" width="180" height="40" as="geometry" />
        </mxCell>
        <mxCell id="ThfCISDLxi8xhfDp9Rs2-13" value="" style="shape=partialRectangle;html=1;whiteSpace=wrap;connectable=0;strokeColor=inherit;overflow=hidden;fillColor=none;top=0;left=0;bottom=0;right=0;pointerEvents=1;fontSize=16;" vertex="1" parent="ThfCISDLxi8xhfDp9Rs2-12">
          <mxGeometry width="60" height="40" as="geometry">
            <mxRectangle width="60" height="40" as="alternateBounds" />
          </mxGeometry>
        </mxCell>
        <mxCell id="ThfCISDLxi8xhfDp9Rs2-14" value="" style="shape=partialRectangle;html=1;whiteSpace=wrap;connectable=0;strokeColor=inherit;overflow=hidden;fillColor=none;top=0;left=0;bottom=0;right=0;pointerEvents=1;fontSize=16;" vertex="1" parent="ThfCISDLxi8xhfDp9Rs2-12">
          <mxGeometry x="60" width="60" height="40" as="geometry">
            <mxRectangle width="60" height="40" as="alternateBounds" />
          </mxGeometry>
        </mxCell>
        <mxCell id="ThfCISDLxi8xhfDp9Rs2-15" value="" style="shape=partialRectangle;html=1;whiteSpace=wrap;connectable=0;strokeColor=inherit;overflow=hidden;fillColor=none;top=0;left=0;bottom=0;right=0;pointerEvents=1;fontSize=16;" vertex="1" parent="ThfCISDLxi8xhfDp9Rs2-12">
          <mxGeometry x="120" width="60" height="40" as="geometry">
            <mxRectangle width="60" height="40" as="alternateBounds" />
          </mxGeometry>
        </mxCell>
        <mxCell id="ThfCISDLxi8xhfDp9Rs2-20" value="" style="edgeStyle=orthogonalEdgeStyle;rounded=0;orthogonalLoop=1;jettySize=auto;html=1;" edge="1" parent="1" source="ThfCISDLxi8xhfDp9Rs2-16" target="ThfCISDLxi8xhfDp9Rs2-19">
          <mxGeometry relative="1" as="geometry" />
        </mxCell>
        <mxCell id="ThfCISDLxi8xhfDp9Rs2-22" value="" style="edgeStyle=orthogonalEdgeStyle;rounded=0;orthogonalLoop=1;jettySize=auto;html=1;" edge="1" parent="1" source="ThfCISDLxi8xhfDp9Rs2-16" target="ThfCISDLxi8xhfDp9Rs2-21">
          <mxGeometry relative="1" as="geometry" />
        </mxCell>
        <mxCell id="ThfCISDLxi8xhfDp9Rs2-16" value="JUDGE" style="rounded=1;whiteSpace=wrap;html=1;" vertex="1" parent="1">
          <mxGeometry x="1590" y="1810" width="120" height="60" as="geometry" />
        </mxCell>
        <mxCell id="ThfCISDLxi8xhfDp9Rs2-18" value="Have you read the Intro?" style="text;html=1;align=center;verticalAlign=middle;whiteSpace=wrap;rounded=0;" vertex="1" parent="1">
          <mxGeometry x="1600" y="1870" width="100" height="30" as="geometry" />
        </mxCell>
        <mxCell id="ThfCISDLxi8xhfDp9Rs2-23" style="edgeStyle=orthogonalEdgeStyle;rounded=0;orthogonalLoop=1;jettySize=auto;html=1;entryX=0;entryY=0.5;entryDx=0;entryDy=0;" edge="1" parent="1" source="ThfCISDLxi8xhfDp9Rs2-19" target="ThfCISDLxi8xhfDp9Rs2-2">
          <mxGeometry relative="1" as="geometry">
            <Array as="points">
              <mxPoint x="1440" y="1720" />
            </Array>
          </mxGeometry>
        </mxCell>
        <mxCell id="ThfCISDLxi8xhfDp9Rs2-19" value="INTRO" style="rounded=1;whiteSpace=wrap;html=1;" vertex="1" parent="1">
          <mxGeometry x="1380" y="1810" width="120" height="60" as="geometry" />
        </mxCell>
        <mxCell id="ThfCISDLxi8xhfDp9Rs2-48" value="" style="edgeStyle=orthogonalEdgeStyle;rounded=0;orthogonalLoop=1;jettySize=auto;html=1;" edge="1" parent="1" source="ThfCISDLxi8xhfDp9Rs2-21" target="ThfCISDLxi8xhfDp9Rs2-47">
          <mxGeometry relative="1" as="geometry" />
        </mxCell>
        <mxCell id="ThfCISDLxi8xhfDp9Rs2-21" value="INDEX" style="rounded=1;whiteSpace=wrap;html=1;" vertex="1" parent="1">
          <mxGeometry x="1800" y="1810" width="120" height="60" as="geometry" />
        </mxCell>
        <mxCell id="ThfCISDLxi8xhfDp9Rs2-51" value="" style="edgeStyle=orthogonalEdgeStyle;rounded=0;orthogonalLoop=1;jettySize=auto;html=1;" edge="1" parent="1" source="ThfCISDLxi8xhfDp9Rs2-47" target="ThfCISDLxi8xhfDp9Rs2-49">
          <mxGeometry relative="1" as="geometry" />
        </mxCell>
        <mxCell id="ThfCISDLxi8xhfDp9Rs2-52" value="" style="edgeStyle=orthogonalEdgeStyle;rounded=0;orthogonalLoop=1;jettySize=auto;html=1;" edge="1" parent="1" source="ThfCISDLxi8xhfDp9Rs2-47" target="ThfCISDLxi8xhfDp9Rs2-50">
          <mxGeometry relative="1" as="geometry" />
        </mxCell>
        <mxCell id="ThfCISDLxi8xhfDp9Rs2-55" style="edgeStyle=orthogonalEdgeStyle;rounded=0;orthogonalLoop=1;jettySize=auto;html=1;entryX=0.5;entryY=1;entryDx=0;entryDy=0;" edge="1" parent="1" source="ThfCISDLxi8xhfDp9Rs2-47" target="ThfCISDLxi8xhfDp9Rs2-19">
          <mxGeometry relative="1" as="geometry">
            <Array as="points">
              <mxPoint x="1860" y="2060" />
              <mxPoint x="1440" y="2060" />
            </Array>
          </mxGeometry>
        </mxCell>
        <mxCell id="ThfCISDLxi8xhfDp9Rs2-47" value="JUDGE" style="rounded=1;whiteSpace=wrap;html=1;" vertex="1" parent="1">
          <mxGeometry x="1800" y="1930" width="120" height="60" as="geometry" />
        </mxCell>
        <mxCell id="ThfCISDLxi8xhfDp9Rs2-54" style="edgeStyle=orthogonalEdgeStyle;rounded=0;orthogonalLoop=1;jettySize=auto;html=1;entryX=0;entryY=0.5;entryDx=0;entryDy=0;" edge="1" parent="1" source="ThfCISDLxi8xhfDp9Rs2-49" target="ThfCISDLxi8xhfDp9Rs2-47">
          <mxGeometry relative="1" as="geometry" />
        </mxCell>
        <mxCell id="ThfCISDLxi8xhfDp9Rs2-49" value="" style="rounded=1;whiteSpace=wrap;html=1;" vertex="1" parent="1">
          <mxGeometry x="1600" y="1930" width="120" height="60" as="geometry" />
        </mxCell>
        <mxCell id="ThfCISDLxi8xhfDp9Rs2-53" value="" style="edgeStyle=orthogonalEdgeStyle;rounded=0;orthogonalLoop=1;jettySize=auto;html=1;" edge="1" parent="1" source="ThfCISDLxi8xhfDp9Rs2-50" target="ThfCISDLxi8xhfDp9Rs2-47">
          <mxGeometry relative="1" as="geometry" />
        </mxCell>
        <mxCell id="ThfCISDLxi8xhfDp9Rs2-50" value="" style="rounded=1;whiteSpace=wrap;html=1;" vertex="1" parent="1">
          <mxGeometry x="2000" y="1930" width="120" height="60" as="geometry" />
        </mxCell>
      </root>
    </mxGraphModel>
  </diagram>
</mxfile>
